<svg xmlns="http://www.w3.org/2000/svg" xmlns:xlink="http://www.w3.org/1999/xlink" width="585.094" height="119.013" viewBox="0 0 154.806 31.489"><defs><linearGradient xlink:href="#a" id="c" x1="25.45" x2="31.825" y1="147.029" y2="153.404" gradientTransform="matrix(1.24928 0 0 1.24928 -11.095 -25.184)" gradientUnits="userSpaceOnUse"/><linearGradient id="a"><stop offset="0" style="stop-color:#ffb805;stop-opacity:1"/><stop offset="1" style="stop-color:#d15700;stop-opacity:1"/></linearGradient><linearGradient xlink:href="#a" id="d" x1="36.755" x2="42.661" y1="144.213" y2="150.12" gradientTransform="matrix(1.24928 0 0 1.24928 -11.112 -25.846)" gradientUnits="userSpaceOnUse"/><linearGradient xlink:href="#b" id="e" x1="47.343" x2="53.155" y1="139.753" y2="145.565" gradientTransform="matrix(1.24928 0 0 1.24928 -10.963 -25.68)" gradientUnits="userSpaceOnUse"/><linearGradient id="b"><stop offset="0" style="stop-color:#ffb905;stop-opacity:1"/><stop offset="1" style="stop-color:#cf5a00;stop-opacity:1"/></linearGradient></defs><path d="M24.682 156.846a5.632 5.632 0 0 0-5.632 5.632 5.632 5.632 0 0 0 1.5 3.826l9.143-6.394a5.632 5.632 0 0 0-5.011-3.064zm5.605 5.088-8.038 5.623a5.632 5.632 0 0 0 2.433.552 5.632 5.632 0 0 0 5.631-5.631 5.632 5.632 0 0 0-.026-.544z" style="fill:url(#c);stroke-width:.330539" transform="translate(-19.05 -136.79)"/><path d="M38.495 147.902a5.206 5.206 0 0 0-5.217 5.217v4.283l5.69-3.98-.002 7.795 4.746-3.327v-4.77a5.205 5.205 0 0 0-5.217-5.218zm-1.527 9.358-3.69 2.582v8.267H43.67v-5.05c.027-.218.041-.439.041-.664v-2.062l-6.746 4.728z" style="fill:url(#d);stroke-width:.330539" transform="translate(-19.05 -136.79)"/><path d="M46.677 136.97v18.842l5.108-3.581h-4.44v-2h8.603v8.605h-2v-5.678l-7.271 5.097v9.854h10.269V136.97z" style="fill:url(#e);stroke-width:.330539" transform="translate(-19.05 -136.79)"/><path d="m62.94 151.804 4.637-.41q.419 2.12 1.69 3.114 1.29.994 3.463.994 2.303 0 3.462-.877 1.176-.891 1.176-2.076 0-.76-.5-1.286-.483-.54-1.706-.936-.838-.263-3.817-.935-3.832-.863-5.378-2.12-2.174-1.769-2.174-4.313 0-1.637 1.014-3.055 1.03-1.433 2.947-2.178 1.933-.746 4.654-.746 4.444 0 6.683 1.77 2.254 1.768 2.367 4.721l-4.767.19q-.306-1.652-1.32-2.368-.998-.731-3.011-.731-2.078 0-3.253.775-.757.497-.757 1.33 0 .76.709 1.301.901.687 4.38 1.433 3.478.745 5.136 1.55 1.675.789 2.61 2.178.95 1.374.95 3.406 0 1.842-1.128 3.45-1.127 1.608-3.188 2.397-2.062.775-5.137.775-4.477 0-6.876-1.871-2.4-1.886-2.867-5.482z" aria-label="S" style="font-weight:700;font-size:31.4226px;font-family:Arial;-inkscape-font-specification:&quot;Arial, Bold&quot;;fill:#d15700;fill-opacity:1;stroke-width:2.61854" transform="translate(-19.05 -136.79)"/><path d="M106.129 148.198q0-3.219.944-5.403.705-1.61 1.917-2.889 1.227-1.279 2.679-1.897 1.931-.833 4.455-.833 4.567 0 7.302 2.888 2.749 2.889 2.749 8.034 0 5.102-2.721 7.99-2.72 2.875-7.274 2.875-4.61 0-7.33-2.86-2.721-2.875-2.721-7.905zm4.3-.143q0 3.578 1.62 5.432 1.622 1.84 4.117 1.84t4.088-1.826q1.607-1.84 1.607-5.504 0-3.621-1.565-5.403-1.55-1.782-4.13-1.782t-4.159 1.81q-1.579 1.797-1.579 5.433z" aria-label="O" style="font-weight:700;font-size:29.1501px;font-family:Arial;-inkscape-font-specification:&quot;Arial, Bold&quot;;fill:#d15700;fill-opacity:1;stroke-width:2.42916" transform="translate(-19.05 -136.79)"/><path d="M86.532 136.926v3.844h2.977c-2.93.961-2.93 3.328-2.93 3.328l-.07 6.296.022 4.97-.035 3.761h15.421v-3.844H90.001v-5.51h10.828v-3.516H90.001v-5.485h11.953v-3.844z" style="fill:#d15700;fill-opacity:1;stroke-width:.264583" transform="translate(-19.05 -136.79)"/><path d="m135.815 132.14 8.72 22.247.026.065h.063l4.081-.046 8.437-22.265h-3.937l-7.245 19.444c.258-2.047-.396-3.788-.396-3.788l-6-15.656z" style="baseline-shift:baseline;display:inline;overflow:visible;vector-effect:none;fill:#666;enable-background:accumulate;stop-color:#000;stop-opacity:1" transform="translate(-25.893 -132.004)"/><path d="m135.621 132.008 8.791 22.428.06.15.153-.002 4.172-.047 8.537-22.53h-4.22l-7.048 18.915c.048-1.733-.378-3.172-.378-3.172l-6.032-15.742zm.387.265h3.467l5.966 15.57s.64 1.715.387 3.725l.256.063 7.213-19.358h3.654l-8.338 22.002-3.963.043zM171.696 132.138l-4.08.045-8.438 22.265h3.937l1.555-4.172h10.487l1.599 4.172h3.75l-8.721-22.246-.026-.065zm-1.335 2.866c-.258 2.047.395 3.789.395 3.789l2.99 7.802h-7.704z" style="baseline-shift:baseline;display:inline;overflow:visible;vector-effect:none;fill:#666;enable-background:accumulate;stop-color:#000;stop-opacity:1" transform="translate(-25.893 -132.004)"/><path d="m171.85 132.004-.155.002-4.172.047-8.537 22.527h4.221l1.555-4.172h10.304l1.598 4.172h4.035l-8.79-22.426Zm-.18.266 8.643 22.046h-3.465l-1.6-4.173h-10.67l-1.555 4.173h-3.652l8.336-22.002zm-1.434 2.687-4.384 11.77h8.087l-3.06-7.98h.002s-.642-1.716-.389-3.726zm.02.707a11.36 11.36 0 0 0 .377 3.176l2.922 7.623h-7.323z" style="baseline-shift:baseline;display:inline;overflow:visible;vector-effect:none;fill:#666;enable-background:accumulate;stop-color:#000;stop-opacity:1" transform="translate(-25.893 -132.004)"/><path d="M65.934 168.11v-3l-2.611-4.129h1.687l1.678 2.82 1.643-2.82h1.658l-2.62 4.139v2.99zm4.478-3.52q0-1.09.326-1.829.243-.545.662-.977.423-.433.924-.642.666-.282 1.536-.282 1.576 0 2.519.977.948.978.948 2.718 0 1.727-.938 2.704-.939.973-2.51.973-1.59 0-2.528-.968-.939-.973-.939-2.675zm1.484-.05q0 1.212.559 1.839.559.622 1.42.622.86 0 1.41-.617.554-.623.554-1.863 0-1.225-.54-1.828-.534-.603-1.424-.603-.89 0-1.435.613-.544.608-.544 1.838zm6.545-3.559h1.44v3.861q0 .92.053 1.192.092.437.437.705.35.262.953.262.613 0 .924-.248.311-.252.375-.617.063-.365.063-1.211v-3.944h1.44v3.745q0 1.283-.117 1.813t-.433.895q-.311.365-.837.584-.525.214-1.37.214-1.022 0-1.552-.234-.525-.238-.832-.612-.306-.38-.403-.793-.141-.613-.141-1.809zm7.206 7.13v-7.13h3.03q1.142 0 1.658.195.52.19.831.68.312.492.312 1.124 0 .802-.472 1.327-.472.52-1.41.657.467.272.768.598.306.326.822 1.157l.87 1.391h-1.721l-1.04-1.551q-.555-.832-.76-1.046-.203-.218-.432-.296-.229-.083-.725-.083h-.291v2.976zm1.44-4.115h1.065q1.035 0 1.293-.087.258-.088.404-.302.146-.214.146-.535 0-.36-.195-.578-.19-.224-.54-.282-.175-.025-1.05-.025h-1.123zm8.15 1.795 1.4-.137q.126.706.51 1.036.39.33 1.046.33.695 0 1.046-.29.355-.298.355-.691 0-.253-.151-.428-.146-.18-.516-.312-.253-.087-1.152-.31-1.157-.288-1.624-.706-.657-.588-.657-1.434 0-.545.307-1.017.31-.476.89-.724.583-.248 1.405-.248 1.342 0 2.018.588.68.589.715 1.57l-1.44.064q-.092-.55-.398-.788-.302-.243-.91-.243-.627 0-.982.258-.229.165-.229.442 0 .253.214.433.273.229 1.323.477 1.05.248 1.551.515.506.263.788.725.287.457.287 1.133 0 .612-.34 1.147t-.963.798q-.623.258-1.552.258-1.351 0-2.076-.623-.724-.627-.865-1.823zm7.007 2.32v-7.13h5.285v1.206h-3.846v1.58h3.579v1.202h-3.579v1.94h3.983v1.201zm6.35-3.521q0-1.09.326-1.829.243-.544.661-.977.424-.433.924-.642.667-.282 1.537-.282 1.576 0 2.519.977.948.978.948 2.718 0 1.727-.938 2.704-.939.973-2.51.973-1.59 0-2.528-.968-.939-.973-.939-2.674zm1.483-.05q0 1.212.56 1.839.559.622 1.42.622.86 0 1.41-.617.554-.623.554-1.863 0-1.225-.54-1.828-.535-.603-1.424-.603-.89 0-1.435.613-.545.608-.545 1.838zm15.381 3.57h-1.566l-.622-1.62h-2.85l-.588 1.62h-1.527l2.777-7.129h1.522zm-2.65-2.82-.982-2.646-.963 2.646zm3.049.5 1.4-.136q.127.706.511 1.036.389.33 1.045.33.696 0 1.046-.29.355-.297.355-.691 0-.253-.15-.428-.147-.18-.516-.312-.253-.087-1.153-.31-1.157-.288-1.624-.706-.656-.588-.656-1.434 0-.545.306-1.017.311-.476.89-.724.583-.248 1.405-.248 1.342 0 2.018.588.681.589.715 1.57l-1.44.064q-.092-.55-.398-.788-.302-.243-.91-.243-.627 0-.982.258-.228.165-.228.442 0 .253.214.433.272.229 1.322.477 1.05.248 1.552.515.505.263.787.725.287.457.287 1.133 0 .612-.34 1.147t-.963.798q-.622.258-1.551.258-1.352 0-2.077-.623-.724-.627-.865-1.823zm6.642 0 1.4-.136q.127.706.511 1.036.39.33 1.046.33.695 0 1.045-.29.355-.297.355-.691 0-.253-.15-.428-.146-.18-.516-.312-.253-.087-1.152-.31-1.158-.288-1.624-.706-.657-.588-.657-1.434 0-.545.306-1.017.312-.476.89-.724.584-.248 1.406-.248 1.342 0 2.018.588.68.589.714 1.57l-1.439.064q-.092-.55-.399-.788-.301-.243-.909-.243-.627 0-.982.258-.229.165-.229.442 0 .253.214.433.273.229 1.323.477 1.05.248 1.551.515.506.263.788.725.287.457.287 1.133 0 .612-.34 1.147-.341.535-.963.798-.623.258-1.552.258-1.352 0-2.076-.623-.725-.627-.866-1.823zm6.964 2.32v-7.129h1.44v7.13zm2.446-2.32 1.4-.136q.127.706.51 1.036.39.33 1.046.33.696 0 1.046-.29.355-.297.355-.691 0-.253-.151-.428-.146-.18-.516-.312-.252-.087-1.152-.31-1.157-.288-1.624-.706-.657-.588-.657-1.434 0-.545.307-1.017.311-.476.89-.724.583-.248 1.405-.248 1.342 0 2.018.588.68.589.715 1.57l-1.44.064q-.092-.55-.398-.788-.302-.243-.91-.243-.627 0-.982.258-.228.165-.228.442 0 .253.214.433.272.229 1.322.477 1.05.248 1.551.515.506.263.788.725.287.457.287 1.133 0 .612-.34 1.147t-.963.798q-.623.258-1.551.258-1.352 0-2.077-.623-.724-.627-.865-1.823zm8.612 2.32v-5.923h-2.116v-1.206h5.665v1.206h-2.11v5.923zm10.167 0h-1.565l-.623-1.62h-2.85l-.588 1.62h-1.527l2.777-7.129h1.522zm-2.65-2.82-.982-2.646-.963 2.646zm3.428 2.82v-7.129h1.4l2.919 4.761v-4.76h1.337v7.128h-1.444l-2.874-4.649v4.65zm8.782 0v-5.923h-2.115v-1.206h5.665v1.206h-2.11v5.923z" aria-label="YOUR SEO ASSISTANT" style="font-weight:700;font-size:9.9588px;font-family:Arial;-inkscape-font-specification:&quot;Arial, Bold&quot;;fill:#666;stroke:#666;stroke-width:.0838544" transform="translate(-19.05 -136.79)"/></svg>