<?xml version="1.0" encoding="UTF-8" standalone="no"?>
<!-- Created with Inkscape (http://www.inkscape.org/) -->

<svg
   width="210mm"
   height="297mm"
   viewBox="0 0 210 297"
   version="1.1"
   id="svg1"
   xml:space="preserve"
   inkscape:version="1.4.2 (ebf0e940d0, 2025-05-08)"
   sodipodi:docname="seova.svg"
   xmlns:inkscape="http://www.inkscape.org/namespaces/inkscape"
   xmlns:sodipodi="http://sodipodi.sourceforge.net/DTD/sodipodi-0.dtd"
   xmlns:xlink="http://www.w3.org/1999/xlink"
   xmlns="http://www.w3.org/2000/svg"
   xmlns:svg="http://www.w3.org/2000/svg"><sodipodi:namedview
     id="namedview1"
     pagecolor="#ffffff"
     bordercolor="#000000"
     borderopacity="0.25"
     inkscape:showpageshadow="2"
     inkscape:pageopacity="0.0"
     inkscape:pagecheckerboard="0"
     inkscape:deskcolor="#d1d1d1"
     inkscape:document-units="mm"
     inkscape:zoom="1.4142136"
     inkscape:cx="328.09755"
     inkscape:cy="620.83975"
     inkscape:window-width="1829"
     inkscape:window-height="1001"
     inkscape:window-x="0"
     inkscape:window-y="0"
     inkscape:window-maximized="1"
     inkscape:current-layer="layer1"
     showguides="true"><sodipodi:guide
       position="79.67578,164.77039"
       orientation="0,-1"
       id="guide1"
       inkscape:locked="false" /><sodipodi:guide
       position="83.960814,142.57398"
       orientation="0,-1"
       id="guide2"
       inkscape:locked="false" /><sodipodi:guide
       position="93.388366,150.80146"
       orientation="1,0"
       id="guide5"
       inkscape:locked="false" /><sodipodi:guide
       position="180.70427,144.16025"
       orientation="1,0"
       id="guide3"
       inkscape:locked="false" /><sodipodi:guide
       position="70.223292,147.26476"
       orientation="1,0"
       id="guide4"
       inkscape:locked="false" /><sodipodi:guide
       position="98.30666,133.64512"
       orientation="0,-1"
       id="guide6"
       inkscape:locked="false" /><sodipodi:guide
       position="44.809797,143.02432"
       orientation="1,0"
       id="guide8"
       inkscape:locked="false" /><sodipodi:guide
       position="31.71153,137.27305"
       orientation="-0.57357644,0.81915204"
       id="guide9"
       inkscape:locked="false"
       inkscape:label=""
       inkscape:color="rgb(0,134,229)" /><sodipodi:guide
       position="53.600904,144.80337"
       orientation="-0.57357644,0.81915204"
       id="guide10"
       inkscape:label=""
       inkscape:locked="false"
       inkscape:color="rgb(0,134,229)" /></sodipodi:namedview><defs
     id="defs1"><linearGradient
       id="linearGradient6"
       inkscape:collect="always"><stop
         style="stop-color:#ffb805;stop-opacity:1;"
         offset="0"
         id="stop6" /><stop
         style="stop-color:#d15700;stop-opacity:1;"
         offset="1"
         id="stop7" /></linearGradient><linearGradient
       id="linearGradient4"
       inkscape:collect="always"><stop
         style="stop-color:#ffb805;stop-opacity:1;"
         offset="0"
         id="stop4" /><stop
         style="stop-color:#d15700;stop-opacity:1;"
         offset="1"
         id="stop5" /></linearGradient><linearGradient
       id="linearGradient2"
       inkscape:collect="always"><stop
         style="stop-color:#ffb905;stop-opacity:1;"
         offset="0"
         id="stop2" /><stop
         style="stop-color:#cf5a00;stop-opacity:1;"
         offset="1"
         id="stop3" /></linearGradient><linearGradient
       inkscape:collect="always"
       xlink:href="#linearGradient2"
       id="linearGradient3"
       x1="47.342522"
       y1="139.75253"
       x2="53.155029"
       y2="145.56503"
       gradientUnits="userSpaceOnUse"
       gradientTransform="matrix(1.249279,0,0,1.249279,-4.1203646,-30.46656)" /><linearGradient
       inkscape:collect="always"
       xlink:href="#linearGradient4"
       id="linearGradient5"
       x1="36.75539"
       y1="144.21344"
       x2="42.661469"
       y2="150.11951"
       gradientUnits="userSpaceOnUse"
       gradientTransform="matrix(1.249279,0,0,1.249279,-4.2689348,-30.63214)" /><linearGradient
       inkscape:collect="always"
       xlink:href="#linearGradient6"
       id="linearGradient7"
       x1="25.450323"
       y1="147.0285"
       x2="31.825325"
       y2="153.4035"
       gradientUnits="userSpaceOnUse"
       gradientTransform="matrix(1.249279,0,0,1.249279,-4.2519656,-29.969659)" /></defs><g
     inkscape:label="Layer 1"
     inkscape:groupmode="layer"
     id="layer1"><path
       id="path1"
       style="fill:url(#linearGradient7);stroke-width:0.330539"
       d="M 31.524691 152.06049 A 5.6315074 5.6315074 0 0 0 25.892993 157.69218 A 5.6315074 5.6315074 0 0 0 27.39316 161.51882 L 36.536271 155.12386 A 5.6315074 5.6315074 0 0 0 31.524691 152.06049 z M 37.130033 157.14803 L 29.091764 162.77094 A 5.6315074 5.6315074 0 0 0 31.524691 163.32336 A 5.6315074 5.6315074 0 0 0 37.156388 157.69218 A 5.6315074 5.6315074 0 0 0 37.130033 157.14803 z "
       inkscape:export-filename="seova-seo-assistant-logo.png"
       inkscape:export-xdpi="250"
       inkscape:export-ydpi="250" /><path
       id="rect1"
       style="fill:url(#linearGradient5);stroke-width:0.330539"
       d="M 45.338318 143.11633 C 42.447864 143.11633 40.120549 145.44313 40.120549 148.33358 L 40.120549 152.61652 L 45.81064 148.63692 L 45.808573 156.4318 L 50.555054 153.10435 L 50.555054 148.33358 C 50.555054 145.44313 48.228772 143.11633 45.338318 143.11633 z M 43.810763 152.47441 L 40.120549 155.05617 L 40.120549 157.6095 L 40.120549 163.32336 L 50.513713 163.32336 L 50.513713 158.27251 C 50.541043 158.05531 50.555054 157.83434 50.555054 157.6095 L 50.555054 155.54709 L 43.808695 160.27549 L 43.810763 152.47441 z " /><path
       id="rect2"
       style="fill:url(#linearGradient3);stroke-width:0.330539"
       d="M 53.519731 132.1847 L 53.519731 151.02644 L 58.627946 147.44526 L 54.18739 147.44526 L 54.18739 145.44539 L 62.790999 145.44539 L 62.790999 154.05055 L 60.791121 154.05055 L 60.791121 148.37234 L 53.519731 153.46919 L 53.519731 163.32336 L 63.788871 163.32336 L 63.788871 132.1847 L 53.519731 132.1847 z " /><path
       d="m 66.488841,154.30076 4.418804,-0.42961 q 0.398919,2.22475 1.611022,3.26807 1.227445,1.04333 3.298759,1.04333 2.194058,0 3.298759,-0.92058 1.120044,-0.93593 1.120044,-2.17872 0,-0.79784 -0.475635,-1.35019 -0.460292,-0.56769 -1.626365,-0.98195 -0.79784,-0.27618 -3.636307,-0.98196 -3.65165,-0.90524 -5.124584,-2.22474 -2.071314,-1.85651 -2.071314,-4.52621 0,-1.71842 0.966613,-3.2067 0.981956,-1.50362 2.807781,-2.28612 1.841168,-0.78249 4.434146,-0.78249 4.234687,0 6.367373,1.85651 2.148029,1.85651 2.255431,4.95581 l -4.541548,0.19946 q -0.291518,-1.73377 -1.258131,-2.48558 -0.95127,-0.76715 -2.869154,-0.76715 -1.979255,0 -3.099299,0.81318 -0.721124,0.52167 -0.721124,1.39622 0,0.79784 0.675095,1.36553 0.859211,0.72113 4.173314,1.50362 3.314102,0.7825 4.894438,1.62637 1.595679,0.82852 2.485577,2.28612 0.905241,1.44224 0.905241,3.57493 0,1.93323 -1.074015,3.62096 -1.074015,1.68774 -3.037927,2.51627 -1.963913,0.81318 -4.894438,0.81318 -4.265373,0 -6.55149,-1.96391 -2.286117,-1.97926 -2.731066,-5.75365 z"
       id="text7"
       style="font-weight:bold;font-size:31.4226px;font-family:Arial;-inkscape-font-specification:'Arial, Bold';stroke-width:2.61854;fill:#d15700;fill-opacity:1"
       transform="scale(1.0495351,0.9528028)"
       aria-label="S" /><path
       d="m 114.06486,142.03847 q 0,-3.18829 0.95365,-5.35177 0.71167,-1.59415 1.93574,-2.86092 1.23831,-1.26678 2.70436,-1.87882 1.94998,-0.82554 4.49777,-0.82554 4.61164,0 7.37293,2.86092 2.77552,2.86093 2.77552,7.9565 0,5.05287 -2.74706,7.9138 -2.74705,2.84669 -7.34446,2.84669 -4.65433,0 -7.40139,-2.83246 -2.74706,-2.84669 -2.74706,-7.8284 z m 4.34121,-0.14233 q 0,3.54413 1.63684,5.38024 1.63685,1.82188 4.15617,1.82188 2.51932,0 4.1277,-1.80764 1.62261,-1.82188 1.62261,-5.45141 0,-3.58683 -1.57991,-5.35178 -1.56568,-1.76495 -4.1704,-1.76495 -2.60472,0 -4.19887,1.79342 -1.59414,1.77918 -1.59414,5.38024 z"
       id="text7-9"
       style="font-weight:bold;font-size:29.1501px;font-family:Arial;-inkscape-font-specification:'Arial, Bold';stroke-width:2.42916;fill:#d15700;fill-opacity:1"
       transform="scale(0.9904168,1.0096759)"
       aria-label="O" /><path
       id="rect3"
       style="fill:#d15700;fill-opacity:1;stroke-width:0.264583"
       d="m 93.375179,132.14077 v 3.84369 h 2.976563 c -2.930004,0.96113 -2.930054,3.32797 -2.930054,3.32797 l -0.07015,6.2956 0.02204,4.96954 -0.03508,3.76185 H 108.7603 v -3.8437 H 96.843701 v -5.51129 h 10.828279 v -3.51555 H 96.843701 v -5.48442 h 11.953279 v -3.84369 z"
       sodipodi:nodetypes="cccccccccccccccccc" /><g
       id="path7"
       style="opacity:1"><path
         style="baseline-shift:baseline;display:inline;overflow:visible;vector-effect:none;fill:#666666;enable-background:accumulate;stop-color:#000000;stop-opacity:1"
         d="m 135.81463,132.14077 8.72091,22.24619 0.0258,0.0651 0.063,-5.2e-4 4.08089,-0.0455 8.43721,-22.26531 h -3.93722 l -7.24556,19.44429 c 0.25792,-2.04663 -0.39532,-3.7884 -0.39532,-3.7884 l -5.99964,-15.65589 z"
         id="path11" /><path
         style="baseline-shift:baseline;display:inline;overflow:visible;vector-effect:none;fill:#666666;enable-background:accumulate;stop-color:#000000;stop-opacity:1"
         d="m 135.62109,132.00781 8.79102,22.42774 0.0605,0.15039 0.15234,-0.002 4.17187,-0.0469 8.53711,-22.5293 h -4.2207 l -7.04687,18.91406 C 146.11425,149.1893 145.6875,147.75 145.6875,147.75 l -6.03125,-15.74219 z m 0.38672,0.26563 h 3.4668 l 5.9668,15.57031 c 0,0 0.64001,1.71471 0.38671,3.72461 l 0.25586,0.0625 7.21289,-19.35742 h 3.6543 l -8.33789,22.00195 -3.96289,0.043 z"
         id="path12" /></g><g
       id="path7-3"
       style="opacity:1"><path
         style="baseline-shift:baseline;display:inline;overflow:visible;vector-effect:none;fill:#666666;enable-background:accumulate;stop-color:#000000;stop-opacity:1"
         d="m 171.69616,132.13767 -4.08089,0.0455 -8.43721,22.2653 h 3.93723 l 1.55494,-4.17287 h 10.4867 l 1.59887,4.17287 h 3.75015 l -8.72091,-22.24618 -0.0258,-0.0651 z m -1.33532,2.86649 c -0.25792,2.04663 0.39532,3.7884 0.39532,3.7884 l 2.99,7.80211 h -7.70444 z"
         id="path13" /><path
         style="baseline-shift:baseline;display:inline;overflow:visible;vector-effect:none;fill:#666666;enable-background:accumulate;stop-color:#000000;stop-opacity:1"
         d="m 171.84961,132.00391 -0.1543,0.002 -4.17187,0.0469 -8.53711,22.52735 h 4.2207 l 1.55469,-4.17188 h 10.30469 l 1.59765,4.17188 h 4.03516 L 171.9082,132.1543 Z m -0.17969,0.26562 8.64258,22.04688 h -3.46484 l -1.59961,-4.17383 h -10.66993 l -1.55468,4.17383 h -3.65235 l 8.33594,-22.00196 z m -1.43359,2.6875 -4.38477,11.76953 h 8.08789 l -3.06054,-7.98047 h 0.002 c 0,0 -0.64196,-1.71471 -0.38867,-3.72461 z m 0.0195,0.70703 c -0.0488,1.73462 0.37695,3.17578 0.37695,3.17578 l 2.92188,7.62305 h -7.32227 z"
         id="path14" /></g><path
       d="m 72.776924,163.3244 v -3.00028 l -2.611268,-4.12843 h 1.687356 l 1.67763,2.82036 1.643591,-2.82036 h 1.658179 l -2.620993,4.13815 v 2.99056 z m 4.478543,-3.52059 q 0,-1.08924 0.3258,-1.82837 0.243135,-0.54463 0.661327,-0.9774 0.423054,-0.43278 0.923912,-0.64188 0.666189,-0.28204 1.536612,-0.28204 1.575513,0 2.518876,0.9774 0.948226,0.97741 0.948226,2.71825 0,1.72626 -0.938501,2.70366 -0.9385,0.97254 -2.509151,0.97254 -1.590101,0 -2.528601,-0.96768 -0.9385,-0.97254 -0.9385,-2.67448 z m 1.483122,-0.0486 q 0,1.21081 0.55921,1.8381 0.55921,0.62243 1.419907,0.62243 0.860697,0 1.410181,-0.61757 0.554348,-0.62242 0.554348,-1.86241 0,-1.2254 -0.539759,-1.82837 -0.534897,-0.60298 -1.42477,-0.60298 -0.889874,0 -1.434495,0.6127 -0.544622,0.60784 -0.544622,1.8381 z m 6.545187,-3.55949 h 1.439358 v 3.86098 q 0,0.91905 0.05349,1.19136 0.09239,0.43764 0.437643,0.70509 0.350114,0.26259 0.953088,0.26259 0.612699,0 0.923912,-0.248 0.311212,-0.25286 0.374428,-0.61756 0.06321,-0.3647 0.06321,-1.21081 v -3.94365 h 1.439357 v 3.74428 q 0,1.28375 -0.116704,1.81378 -0.116705,0.53004 -0.43278,0.89474 -0.311213,0.3647 -0.836384,0.58352 -0.525171,0.21396 -1.37128,0.21396 -1.021166,0 -1.5512,-0.23341 -0.525171,-0.23827 -0.831521,-0.6127 -0.306349,-0.37929 -0.403603,-0.79262 -0.141019,-0.6127 -0.141019,-1.80892 z m 7.206515,7.12871 v -7.12871 h 3.02946 q 1.142733,0 1.658179,0.19451 0.520308,0.18964 0.831521,0.68078 0.311212,0.49113 0.311212,1.12328 0,0.80234 -0.471681,1.32751 -0.471682,0.52031 -1.410182,0.65647 0.466819,0.27231 0.768306,0.59811 0.30635,0.3258 0.821796,1.15732 l 0.870422,1.39073 H 97.17793 l -1.040617,-1.5512 q -0.554347,-0.83152 -0.75858,-1.04548 -0.204234,-0.21882 -0.43278,-0.29662 -0.228547,-0.0827 -0.724542,-0.0827 h -0.291762 v 2.97597 z m 1.439358,-4.11384 h 1.064931 q 1.035754,0 1.293477,-0.0875 0.257722,-0.0875 0.403603,-0.30148 0.145881,-0.21396 0.145881,-0.5349 0,-0.35984 -0.194508,-0.57866 -0.189645,-0.22369 -0.539759,-0.28204 -0.175057,-0.0243 -1.050342,-0.0243 h -1.123283 z m 8.149881,1.79434 1.40045,-0.13616 q 0.12643,0.70509 0.51059,1.03575 0.38901,0.33067 1.04548,0.33067 0.69536,0 1.04548,-0.29176 0.35497,-0.29663 0.35497,-0.69051 0,-0.25286 -0.15074,-0.42791 -0.14588,-0.17992 -0.51545,-0.31122 -0.25286,-0.0875 -1.15246,-0.31121 -1.15732,-0.2869 -1.62414,-0.70509 -0.65646,-0.58839 -0.65646,-1.43449 0,-0.54463 0.30635,-1.01631 0.31121,-0.47654 0.88987,-0.72454 0.58353,-0.248 1.40532,-0.248 1.34211,0 2.01802,0.58839 0.68078,0.58839 0.71482,1.57065 l -1.43936,0.0632 q -0.0924,-0.54948 -0.39874,-0.78775 -0.30149,-0.24314 -0.90933,-0.24314 -0.62728,0 -0.98226,0.25773 -0.22855,0.16533 -0.22855,0.4425 0,0.25286 0.21396,0.43278 0.27231,0.22855 1.32266,0.47655 1.05034,0.24799 1.5512,0.51544 0.50572,0.26259 0.78775,0.72454 0.2869,0.4571 0.2869,1.13301 0,0.6127 -0.34039,1.1476 -0.34039,0.53489 -0.96281,0.79748 -0.62243,0.25772 -1.5512,0.25772 -1.35183,0 -2.07637,-0.62242 -0.72454,-0.62729 -0.86556,-1.82351 z m 7.00714,2.3195 v -7.12871 h 5.28575 v 1.20595 h -3.84639 v 1.58037 h 3.57894 v 1.20109 h -3.57894 v 1.94022 h 3.98255 v 1.20108 z m 6.35068,-3.52059 q 0,-1.08924 0.3258,-1.82837 0.24314,-0.54463 0.66133,-0.9774 0.42305,-0.43278 0.92391,-0.64188 0.66619,-0.28204 1.53661,-0.28204 1.57551,0 2.51888,0.9774 0.94822,0.97741 0.94822,2.71825 0,1.72626 -0.9385,2.70366 -0.9385,0.97254 -2.50915,0.97254 -1.5901,0 -2.5286,-0.96768 -0.9385,-0.97254 -0.9385,-2.67448 z m 1.48312,-0.0486 q 0,1.21081 0.55921,1.8381 0.55921,0.62243 1.41991,0.62243 0.8607,0 1.41018,-0.61757 0.55435,-0.62242 0.55435,-1.86241 0,-1.2254 -0.53976,-1.82837 -0.5349,-0.60298 -1.42477,-0.60298 -0.88987,0 -1.4345,0.6127 -0.54462,0.60784 -0.54462,1.8381 z m 15.38071,3.56922 h -1.56579 l -0.62242,-1.61928 h -2.84954 l -0.58839,1.61928 h -1.52688 l 2.77659,-7.12871 h 1.52203 z m -2.65017,-2.82036 -0.98226,-2.64531 -0.96282,2.64531 z m 3.04891,0.50086 1.40046,-0.13616 q 0.12643,0.70509 0.51058,1.03575 0.38901,0.33067 1.04548,0.33067 0.69536,0 1.04548,-0.29176 0.35497,-0.29663 0.35497,-0.69051 0,-0.25286 -0.15074,-0.42791 -0.14588,-0.17992 -0.51544,-0.31122 -0.25286,-0.0875 -1.15246,-0.31121 -1.15732,-0.2869 -1.62414,-0.70509 -0.65647,-0.58839 -0.65647,-1.43449 0,-0.54463 0.30635,-1.01631 0.31121,-0.47654 0.88988,-0.72454 0.58352,-0.248 1.40531,-0.248 1.34211,0 2.01802,0.58839 0.68078,0.58839 0.71482,1.57065 l -1.43936,0.0632 q -0.0924,-0.54948 -0.39874,-0.78775 -0.30149,-0.24314 -0.90932,-0.24314 -0.62729,0 -0.98227,0.25773 -0.22854,0.16533 -0.22854,0.4425 0,0.25286 0.21395,0.43278 0.27231,0.22855 1.32266,0.47655 1.05034,0.24799 1.5512,0.51544 0.50572,0.26259 0.78775,0.72454 0.2869,0.4571 0.2869,1.13301 0,0.6127 -0.34039,1.1476 -0.34038,0.53489 -0.96281,0.79748 -0.62242,0.25772 -1.5512,0.25772 -1.35183,0 -2.07637,-0.62242 -0.72454,-0.62729 -0.86556,-1.82351 z m 6.64244,0 1.40046,-0.13616 q 0.12643,0.70509 0.51058,1.03575 0.38902,0.33067 1.04548,0.33067 0.69536,0 1.04548,-0.29176 0.35498,-0.29663 0.35498,-0.69051 0,-0.25286 -0.15075,-0.42791 -0.14588,-0.17992 -0.51544,-0.31122 -0.25286,-0.0875 -1.15246,-0.31121 -1.15732,-0.2869 -1.62414,-0.70509 -0.65647,-0.58839 -0.65647,-1.43449 0,-0.54463 0.30635,-1.01631 0.31122,-0.47654 0.88988,-0.72454 0.58352,-0.248 1.40532,-0.248 1.3421,0 2.01801,0.58839 0.68078,0.58839 0.71482,1.57065 l -1.43936,0.0632 q -0.0924,-0.54948 -0.39874,-0.78775 -0.30149,-0.24314 -0.90932,-0.24314 -0.62729,0 -0.98227,0.25773 -0.22854,0.16533 -0.22854,0.4425 0,0.25286 0.21395,0.43278 0.27232,0.22855 1.32266,0.47655 1.05034,0.24799 1.5512,0.51544 0.50572,0.26259 0.78775,0.72454 0.2869,0.4571 0.2869,1.13301 0,0.6127 -0.34039,1.1476 -0.34038,0.53489 -0.96281,0.79748 -0.62242,0.25772 -1.5512,0.25772 -1.35183,0 -2.07637,-0.62242 -0.72454,-0.62729 -0.86556,-1.82351 z m 6.96338,2.3195 v -7.12871 h 1.43936 v 7.12871 z m 2.44594,-2.3195 1.40045,-0.13616 q 0.12643,0.70509 0.51059,1.03575 0.38901,0.33067 1.04548,0.33067 0.69536,0 1.04548,-0.29176 0.35497,-0.29663 0.35497,-0.69051 0,-0.25286 -0.15074,-0.42791 -0.14588,-0.17992 -0.51545,-0.31122 -0.25286,-0.0875 -1.15246,-0.31121 -1.15732,-0.2869 -1.62414,-0.70509 -0.65646,-0.58839 -0.65646,-1.43449 0,-0.54463 0.30635,-1.01631 0.31121,-0.47654 0.88987,-0.72454 0.58353,-0.248 1.40532,-0.248 1.34211,0 2.01802,0.58839 0.68078,0.58839 0.71482,1.57065 l -1.43936,0.0632 q -0.0924,-0.54948 -0.39874,-0.78775 -0.30149,-0.24314 -0.90933,-0.24314 -0.62728,0 -0.98226,0.25773 -0.22855,0.16533 -0.22855,0.4425 0,0.25286 0.21396,0.43278 0.27231,0.22855 1.32265,0.47655 1.05035,0.24799 1.5512,0.51544 0.50573,0.26259 0.78776,0.72454 0.2869,0.4571 0.2869,1.13301 0,0.6127 -0.34039,1.1476 -0.34039,0.53489 -0.96281,0.79748 -0.62243,0.25772 -1.5512,0.25772 -1.35183,0 -2.07637,-0.62242 -0.72454,-0.62729 -0.86556,-1.82351 z m 8.61183,2.3195 v -5.92276 h -2.11527 v -1.20595 h 5.66504 v 1.20595 h -2.11041 v 5.92276 z m 10.1679,0 h -1.56579 l -0.62242,-1.61928 h -2.84954 l -0.58839,1.61928 h -1.52688 l 2.7766,-7.12871 h 1.52202 z m -2.65017,-2.82036 -0.98226,-2.64531 -0.96281,2.64531 z m 3.4282,2.82036 v -7.12871 h 1.40046 l 2.91762,4.76058 v -4.76058 h 1.33724 v 7.12871 h -1.44422 l -2.87386,-4.64874 v 4.64874 z m 8.78203,0 v -5.92276 h -2.11527 v -1.20595 h 5.66504 v 1.20595 h -2.11041 v 5.92276 z"
       id="text1"
       style="font-weight:bold;font-size:9.9588px;font-family:Arial;-inkscape-font-specification:'Arial, Bold';fill:#666666;stroke:#666666;stroke-width:0.0838544"
       aria-label="YOUR SEO ASSISTANT" /><text
       xml:space="preserve"
       style="font-style:normal;font-variant:normal;font-weight:bold;font-stretch:normal;font-size:9.9588px;font-family:Arial;-inkscape-font-specification:'Arial, Bold';font-variant-ligatures:normal;font-variant-caps:normal;font-variant-numeric:normal;font-variant-east-asian:normal;text-align:start;writing-mode:lr-tb;direction:ltr;text-anchor:start;fill:#666666;fill-opacity:1;stroke:#666666;stroke-width:0.0838544"
       x="127.3211"
       y="207.44949"
       id="text1-4"><tspan
         sodipodi:role="line"
         id="tspan1-8"
         style="fill:#666666;stroke:#666666;stroke-width:0.0838544"
         x="127.3211"
         y="207.44949">Arial Bold</tspan></text></g></svg>
